<?xml version="1.0" encoding="UTF-8"?>
<svg xmlns="http://www.w3.org/2000/svg" viewBox="224 253 1459 1456" width="256" height="256">
      <path d="M0,0 L5,1 L14,17 L21,25 L27,41 L35,51 L39,62 L43,70 L48,74 L52,84 L55,95 L59,101 L64,107 L70,128 L78,139 L81,148 L84,165 L88,172 L92,177 L95,190 L98,208 L106,225 L109,238 L112,267 L116,283 L120,292 L122,302 L123,313 L124,344 L124,476 L123,510 L120,528 L116,537 L112,554 L109,582 L105,595 L99,607 L96,623 L93,640 L89,646 L85,652 L82,665 L79,678 L74,686 L69,694 L65,711 L61,717 L56,722 L54,727 L51,739 L47,745 L40,753 L35,769 L28,774 L15,777 L-1,777 L-55,773 L-65,769 L-78,763 L-93,759 L-101,754 L-110,749 L-120,745 L-129,737 L-143,727 L-151,718 L-159,712 L-169,698 L-176,690 L-182,678 L-190,670 L-194,659 L-197,650 L-204,644 L-207,635 L-211,619 L-218,611 L-224,595 L-230,590 L-243,585 L-254,578 L-280,573 L-292,567 L-300,563 L-323,558 L-336,551 L-345,547 L-369,542 L-376,538 L-382,534 L-385,533 L-399,533 L-405,536 L-407,540 L-408,548 L-409,685 L-410,707 L-413,726 L-419,742 L-422,761 L-425,783 L-429,789 L-433,794 L-437,810 L-440,818 L-448,828 L-453,843 L-456,848 L-462,852 L-468,864 L-479,876 L-487,887 L-492,891 L-494,891 L-494,893 L-496,893 L-498,897 L-503,902 L-513,909 L-515,909 L-517,913 L-526,920 L-536,925 L-544,932 L-563,939 L-570,945 L-586,950 L-602,955 L-613,961 L-632,965 L-656,968 L-668,971 L-678,974 L-701,976 L-729,975 L-744,972 L-759,967 L-778,964 L-787,960 L-799,952 L-811,947 L-819,938 L-828,932 L-839,921 L-847,909 L-854,903 L-859,889 L-866,881 L-869,873 L-873,856 L-879,845 L-882,839 L-884,826 L-887,780 L-887,741 L-884,690 L-882,673 L-878,663 L-873,653 L-868,624 L-865,618 L-859,611 L-854,590 L-848,582 L-844,576 L-839,563 L-830,554 L-824,542 L-815,532 L-801,518 L-787,510 L-782,505 L-775,502 L-760,498 L-750,491 L-738,487 L-717,483 L-700,475 L-675,470 L-656,467 L-633,461 L-590,456 L-528,450 L-509,447 L-449,442 L-395,438 L-375,434 L-350,430 L-321,426 L-306,422 L-292,417 L-275,413 L-259,407 L-248,401 L-235,397 L-225,390 L-207,384 L-200,378 L-192,373 L-180,368 L-175,363 L-159,354 L-156,353 L-154,349 L-145,343 L-137,338 L-131,331 L-122,326 L-118,319 L-108,312 L-101,303 L-93,297 L-88,289 L-80,283 L-75,274 L-69,268 L-67,268 L-65,263 L-61,253 L-51,241 L-47,229 L-38,218 L-35,209 L-31,196 L-24,185 L-22,179 L-19,156 L-16,145 L-11,134 L-8,121 L-5,65 L-5,47 L-6,32 L-6,6 L-4,2 Z " fill="#7C3AED" transform="translate(1549,582)"/>
      <path d="M0,0 L12,1 L18,5 L19,9 L15,15 L8,21 L3,26 L-8,30 L-15,32 L-17,36 L-31,46 L-39,53 L-46,59 L-52,63 L-58,71 L-67,78 L-73,86 L-82,93 L-88,102 L-94,106 L-101,116 L-108,123 L-117,136 L-122,141 L-126,146 L-131,155 L-140,163 L-145,173 L-152,180 L-161,197 L-168,203 L-175,217 L-182,224 L-189,241 L-194,245 L-197,248 L-202,260 L-210,271 L-214,279 L-219,289 L-222,292 L-224,292 L-226,296 L-231,313 L-239,320 L-243,331 L-247,340 L-254,348 L-257,354 L-261,367 L-269,377 L-274,392 L-278,398 L-284,406 L-290,424 L-298,434 L-301,444 L-304,454 L-309,459 L-313,465 L-318,483 L-325,491 L-328,496 L-331,511 L-334,517 L-339,521 L-343,532 L-346,544 L-350,550 L-354,555 L-357,563 L-361,577 L-367,585 L-371,593 L-375,610 L-378,615 L-384,622 L-387,634 L-389,643 L-396,652 L-399,657 L-403,675 L-409,684 L-413,690 L-418,710 L-424,718 L-428,724 L-433,737 L-437,743 L-441,747 L-443,747 L-443,749 L-448,754 L-453,759 L-469,767 L-483,775 L-509,780 L-540,785 L-582,785 L-613,781 L-649,777 L-676,773 L-699,767 L-723,762 L-742,758 L-758,749 L-761,745 L-761,679 L-759,664 L-757,656 L-755,638 L-751,622 L-748,597 L-746,575 L-743,565 L-738,557 L-735,544 L-732,519 L-728,510 L-722,500 L-720,489 L-717,474 L-710,463 L-707,459 L-703,439 L-699,433 L-693,426 L-689,408 L-682,400 L-678,393 L-674,380 L-669,374 L-664,369 L-658,351 L-650,344 L-645,332 L-637,324 L-629,308 L-621,301 L-615,289 L-607,283 L-601,272 L-593,264 L-585,253 L-577,245 L-571,236 L-561,227 L-555,219 L-547,213 L-541,205 L-532,198 L-525,190 L-516,184 L-511,179 L-503,172 L-497,168 L-490,161 L-479,154 L-471,145 L-460,139 L-455,133 L-440,125 L-433,118 L-417,110 L-409,104 L-393,96 L-384,90 L-363,80 L-347,72 L-334,65 L-326,60 L-305,54 L-294,47 L-270,41 L-254,34 L-246,31 L-215,25 L-200,19 L-173,15 L-136,10 L-119,5 L-105,4 L-97,2 L-20,1 Z " fill="#7C3AED" transform="translate(995,263)"/>
      <path d="M0,0 L19,0 L33,3 L50,6 L71,9 L80,15 L85,19 L102,24 L109,33 L117,38 L126,48 L132,53 L138,62 L144,66 L147,73 L151,82 L156,87 L161,99 L164,112 L173,129 L175,145 L176,161 L176,219 L174,247 L171,259 L164,271 L159,293 L154,301 L150,306 L147,314 L144,322 L136,329 L130,339 L125,346 L116,353 L110,360 L94,368 L82,377 L61,382 L52,387 L47,390 L31,393 L8,397 L-8,404 L-28,408 L-58,410 L-76,413 L-92,418 L-116,422 L-150,423 L-205,424 L-270,424 L-302,423 L-310,420 L-313,414 L-314,407 L-314,396 L-310,360 L-307,351 L-299,337 L-297,325 L-295,312 L-291,305 L-286,299 L-283,289 L-280,277 L-276,270 L-271,265 L-267,252 L-265,243 L-260,238 L-256,234 L-251,217 L-244,209 L-242,209 L-239,199 L-233,189 L-228,183 L-225,175 L-222,167 L-214,161 L-206,146 L-202,141 L-200,141 L-198,137 L-192,126 L-185,121 L-180,111 L-172,104 L-170,104 L-168,98 L-157,88 L-149,78 L-143,74 L-137,66 L-129,61 L-121,52 L-112,47 L-106,39 L-92,33 L-81,24 L-73,21 L-64,18 L-54,11 L-47,8 L-23,5 Z " fill="#10B981" transform="translate(1165,444)"/>
      <path d="M0,0 L16,1 L30,4 L53,12 L75,16 L98,18 L116,19 L149,19 L177,17 L195,14 L204,11 L210,12 L216,16 L218,19 L218,25 L214,31 L212,39 L210,56 L206,68 L201,77 L198,94 L195,128 L191,149 L189,167 L189,188 L192,210 L196,234 L199,259 L202,269 L209,279 L213,299 L217,305 L222,311 L226,321 L229,328 L238,335 L243,346 L251,351 L253,355 L255,363 L258,368 L258,370 L252,372 L246,372 L242,368 L239,363 L230,358 L223,349 L215,344 L208,335 L200,330 L196,325 L191,320 L183,314 L178,306 L170,301 L163,291 L157,287 L150,277 L145,272 L139,265 L135,259 L129,254 L119,238 L113,233 L106,220 L97,212 L91,200 L84,192 L78,178 L71,172 L67,164 L62,151 L55,144 L51,133 L47,124 L39,114 L34,95 L29,90 L25,84 L21,63 L13,53 L10,44 L6,24 L2,18 L-3,13 L-4,5 Z " fill="#7C3AED" transform="translate(267,1198)"/>
      <path d="M0,0 L5,1 L8,5 L12,16 L23,28 L29,38 L39,45 L44,52 L58,60 L67,68 L76,72 L86,77 L92,82 L103,86 L118,89 L133,96 L149,100 L154,105 L154,112 L149,118 L144,122 L139,128 L129,134 L122,143 L113,149 L106,157 L97,162 L90,169 L79,176 L73,180 L69,185 L55,193 L49,199 L37,204 L27,212 L19,217 L7,222 L1,227 L-10,232 L-18,236 L-25,242 L-42,248 L-52,254 L-56,257 L-76,263 L-82,267 L-91,271 L-110,276 L-120,280 L-132,286 L-154,291 L-163,293 L-169,298 L-174,297 L-174,292 L-171,288 L-169,288 L-168,281 L-164,276 L-152,270 L-150,270 L-148,265 L-143,260 L-137,257 L-135,257 L-133,252 L-122,243 L-115,233 L-109,229 L-103,218 L-96,213 L-89,200 L-82,193 L-77,183 L-73,175 L-67,171 L-63,160 L-59,150 L-51,141 L-46,124 L-42,117 L-38,113 L-35,103 L-33,91 L-28,83 L-25,78 L-22,69 L-18,45 L-10,28 L-8,21 L-7,7 L-2,1 Z " fill="#7C3AED" transform="translate(1304,1401)"/>
      <path d="M0,0 L32,0 L50,4 L62,8 L80,12 L90,16 L101,24 L113,29 L120,37 L128,42 L133,46 L138,51 L145,61 L150,67 L155,72 L159,82 L167,90 L170,97 L173,110 L179,120 L183,128 L185,143 L187,170 L189,191 L189,206 L186,238 L184,267 L181,276 L175,285 L172,294 L169,308 L166,314 L159,320 L153,336 L149,341 L144,346 L138,356 L127,365 L119,374 L104,382 L102,382 L100,386 L91,390 L73,394 L64,401 L53,404 L33,407 L20,412 L7,417 L-11,420 L-44,424 L-60,428 L-71,431 L-103,434 L-137,436 L-197,439 L-211,440 L-252,440 L-296,436 L-307,433 L-312,428 L-318,412 L-317,404 L-313,393 L-310,375 L-307,354 L-303,346 L-298,338 L-295,327 L-292,312 L-288,305 L-283,299 L-281,293 L-279,280 L-274,272 L-269,267 L-264,248 L-257,240 L-254,236 L-249,219 L-240,211 L-234,194 L-229,188 L-227,188 L-225,184 L-222,177 L-219,171 L-212,164 L-204,147 L-196,141 L-190,130 L-181,122 L-176,112 L-170,108 L-164,99 L-157,92 L-150,84 L-139,74 L-134,69 L-128,65 L-121,57 L-110,50 L-103,42 L-94,38 L-86,31 L-76,26 L-66,22 L-58,16 L-44,11 L-19,5 L-6,1 Z M6,8 L-17,13 L-41,16 L-53,22 L-58,26 L-67,29 L-77,33 L-86,41 L-100,47 L-107,56 L-116,61 L-125,71 L-133,76 L-138,83 L-146,89 L-154,99 L-162,106 L-164,112 L-168,114 L-175,120 L-179,129 L-187,135 L-192,145 L-194,149 L-196,149 L-202,157 L-209,170 L-216,175 L-219,183 L-223,193 L-230,201 L-236,215 L-236,217 L-240,219 L-245,225 L-250,242 L-255,247 L-259,251 L-264,271 L-268,277 L-272,281 L-276,292 L-279,305 L-283,311 L-288,317 L-290,323 L-292,341 L-296,351 L-301,359 L-304,368 L-308,404 L-308,415 L-306,425 L-302,429 L-296,431 L-264,432 L-199,432 L-144,431 L-110,430 L-86,426 L-65,420 L-52,418 L-22,416 L-2,412 L14,405 L37,401 L53,398 L64,391 L80,387 L90,384 L100,376 L116,368 L125,358 L131,354 L139,343 L143,336 L150,330 L153,322 L157,312 L163,305 L167,294 L170,279 L178,265 L180,255 L182,227 L182,169 L180,143 L178,135 L170,120 L166,104 L162,95 L155,87 L151,75 L146,71 L141,66 L135,58 L128,52 L121,44 L113,39 L108,32 L91,27 L81,19 L73,16 L43,12 L32,9 L25,8 Z " fill="#7C3AED" transform="translate(1159,436)"/>
</svg>
